<mxfile host="app.diagrams.net" modified="2023-10-16T14:20:49.398Z" agent="Mozilla/5.0 (Macintosh; Intel Mac OS X 10_15_7) AppleWebKit/605.1.15 (KHTML, like Gecko) Version/16.6 Safari/605.1.15" version="22.0.4" etag="vXkfgLF1bDxj13Nuxfsh" type="github">
  <diagram name="第 1 页" id="pryvRngCojw1RK_k5SWK">
    <mxGraphModel>
      <root>
        <mxCell id="0" />
        <mxCell id="1" parent="0" />
      </root>
    </mxGraphModel>
  </diagram>
</mxfile>
